<svg width="200" height="24.435592279265233" viewBox="0 0 200 24.435592279265233" class="css-1j8o68f"><defs id="SvgjsDefs1116"><linearGradient id="SvgjsLinearGradient1119"><stop id="SvgjsStop1120" stop-color="#8f5e25" offset="0"></stop><stop id="SvgjsStop1121" stop-color="#fbf4a1" offset="0.5"></stop><stop id="SvgjsStop1122" stop-color="#8f5e25" offset="1"></stop></linearGradient></defs><g id="SvgjsG1117" featurekey="nameFeature-0" transform="matrix(0.8300133096464097,0,0,0.8300133096464097,-1.8924309159187247,-8.99734282009231)" fill="url(#SvgjsLinearGradient1119)"><path d="M9.84 23.2 c0 4.2 7.28 6.36 7.28 11.24 c0 3.76 -3.24 5.76 -7.8 5.76 c-4.08 0 -7.04 -2.12 -7.04 -5.24 c0 -1.16 0.56 -1.8 1.16 -2 l5.12 -9.64 c0.2 -1 0.64 -1.92 1.08 -2.64 c0.4 -0.64 0.92 -1.16 1.12 -1.16 c0.16 0 0.24 0.16 0.16 0.28 c-0.64 1.04 -1.08 2.12 -1.08 3.4 z M9 39.72 c4.56 0 5.76 -2.4 5.76 -4.72 c0 -3.64 -6.72 -6.4 -6.32 -10.6 l-4.52 8.48 c0.6 0.04 1.16 0.48 1.16 1.32 c0 1.16 -1.44 1.36 -1.44 2.32 c0 1.64 2.36 3.2 5.36 3.2 z M40.400000000000006 39.6 c0.12 0 0.2 0.08 0.2 0.2 s-0.08 0.2 -0.2 0.2 l-6.4 0 c-0.12 0 -0.2 -0.08 -0.2 -0.2 s0.08 -0.2 0.2 -0.2 l1.16 0 c0.52 0 0.84 -0.4 0.84 -0.84 l0 -10.64 c0 -4.52 -2.28 -5.68 -3.96 -5.68 c-3.8 0 -6.44 4 -6.44 8.64 l0 7.68 c0 0.44 0.32 0.84 0.84 0.84 l1.16 0 c0.12 0 0.2 0.08 0.2 0.2 s-0.08 0.2 -0.2 0.2 l-6.4 0 c-0.12 0 -0.2 -0.08 -0.2 -0.2 s0.08 -0.2 0.2 -0.2 l1.16 0 c0.52 0 0.84 -0.4 0.84 -0.84 l0 -26.68 c0 -0.44 -0.32 -0.84 -0.84 -0.84 l-1.16 0 c-0.12 0 -0.2 -0.08 -0.2 -0.2 s0.08 -0.2 0.2 -0.2 l4.4 0 l0 17.08 c0.92 -3.52 3.44 -6.16 7.16 -6.16 c3.44 0 5.64 2 5.64 5.44 l0 11.56 c0 0.44 0.32 0.84 0.84 0.84 l1.16 0 z M63.08 39.6 c0.12 0 0.2 0.08 0.2 0.2 s-0.08 0.2 -0.2 0.2 l-4.4 0 l0 -5.88 c-0.96 3.52 -3.48 6.16 -6.72 6.16 c-3.76 0 -7.76 -2.44 -7.76 -9.32 c0 -6.44 4 -9.28 7.76 -9.28 c3.24 0 5.76 2.68 6.72 6.2 l0 -5.92 l2.4 0 l0 16.8 c0 0.44 0.32 0.84 0.84 0.84 l1.16 0 z M52.64 39.6 c3.12 0 6.04 -3.8 6.04 -8.6 c0 -4.76 -2.92 -8.64 -6.04 -8.64 c-3.32 0 -5.76 2.8 -5.76 8.6 c0 5.84 2.44 8.64 5.76 8.64 z M76.75999999999999 21.76 c2.64 0 3.28 1.72 3.28 3.16 c0 1.12 -0.48 2.08 -1.6 2.08 c-0.72 0 -1.36 -0.4 -1.36 -1.32 c0 -0.96 1.16 -1.44 1.16 -2.2 c0 -0.72 -0.6 -1.2 -1.72 -1.2 c-2.68 0 -5.72 3.48 -5.72 10.28 l0 6.2 c0 0.44 0.32 0.84 0.84 0.84 l2.28 0 c0.12 0 0.2 0.08 0.2 0.2 s-0.08 0.2 -0.2 0.2 l-7.52 0 c-0.12 0 -0.2 -0.08 -0.2 -0.2 s0.08 -0.2 0.2 -0.2 l1.16 0 c0.52 0 0.84 -0.4 0.84 -0.84 l0 -15.56 c0 -0.44 -0.32 -0.84 -0.84 -0.84 l-1.16 0 c-0.12 0 -0.2 -0.08 -0.2 -0.2 s0.08 -0.2 0.2 -0.2 l4.4 0 l0 6.52 c1.04 -5 3.92 -6.72 5.96 -6.72 z M98.6 30.759999999999998 c0 0.12 -0.04 0.2 -0.2 0.2 l-13 0 c0 4.6 1.88 8.56 6.4 8.56 c3.52 0 5.4 -2.68 6.04 -4.52 c0.04 -0.12 0.12 -0.16 0.2 -0.16 c0.16 0 0.24 0.12 0.2 0.28 c-0.4 1.28 -2.2 5.08 -6.76 5.08 c-4.72 0 -8.76 -2.88 -8.76 -9.28 c0 -6.12 3.68 -9.24 8.12 -9.24 c4.28 0 7.76 2.96 7.76 9.08 z M85.39999999999999 30.560000000000002 l10.6 0 c0 -5.72 -2.12 -8.44 -5.08 -8.44 c-3.04 0 -5.4 2.88 -5.52 8.44 z M131.4 39.6 c0.12 0 0.2 0.08 0.2 0.2 s-0.08 0.2 -0.2 0.2 l-6.4 0 c-0.12 0 -0.2 -0.08 -0.2 -0.2 s0.08 -0.2 0.2 -0.2 l1.16 0 c0.52 0 0.84 -0.4 0.84 -0.84 l0 -10.64 c0 -4.52 -2.28 -5.68 -3.96 -5.68 c-3.8 0 -6.44 4 -6.44 8.64 l0 7.68 c0 0.44 0.32 0.84 0.84 0.84 l1.16 0 c0.12 0 0.2 0.08 0.2 0.2 s-0.08 0.2 -0.2 0.2 l-6.4 0 c-0.12 0 -0.2 -0.08 -0.2 -0.2 s0.08 -0.2 0.2 -0.2 l1.16 0 c0.52 0 0.84 -0.4 0.84 -0.84 l0 -26.68 c0 -0.44 -0.32 -0.84 -0.84 -0.84 l-1.16 0 c-0.12 0 -0.2 -0.08 -0.2 -0.2 s0.08 -0.2 0.2 -0.2 l4.4 0 l0 17.08 c0.92 -3.52 3.44 -6.16 7.16 -6.16 c3.44 0 5.64 2 5.64 5.44 l0 11.56 c0 0.44 0.32 0.84 0.84 0.84 l1.16 0 z M143.56 40.2 c-4.48 0 -8.36 -3.16 -8.36 -9.28 s3.88 -9.24 8.36 -9.24 s8.36 3.12 8.36 9.24 s-3.88 9.28 -8.36 9.28 z M143.56 39.76 c3.08 -0.04 5.68 -3.08 5.68 -8.84 c0 -5.8 -2.6 -8.8 -5.68 -8.8 s-5.68 3 -5.68 8.8 c0 5.76 2.6 8.8 5.68 8.84 z M166.36 21.76 c2.64 0 3.28 1.72 3.28 3.16 c0 1.12 -0.48 2.08 -1.6 2.08 c-0.72 0 -1.36 -0.4 -1.36 -1.32 c0 -0.96 1.16 -1.44 1.16 -2.2 c0 -0.72 -0.6 -1.2 -1.72 -1.2 c-2.68 0 -5.72 3.48 -5.72 10.28 l0 6.2 c0 0.44 0.32 0.84 0.84 0.84 l2.28 0 c0.12 0 0.2 0.08 0.2 0.2 s-0.08 0.2 -0.2 0.2 l-7.52 0 c-0.12 0 -0.2 -0.08 -0.2 -0.2 s0.08 -0.2 0.2 -0.2 l1.16 0 c0.52 0 0.84 -0.4 0.84 -0.84 l0 -15.56 c0 -0.44 -0.32 -0.84 -0.84 -0.84 l-1.16 0 c-0.12 0 -0.2 -0.08 -0.2 -0.2 s0.08 -0.2 0.2 -0.2 l4.4 0 l0 6.52 c1.04 -5 3.92 -6.72 5.96 -6.72 z M173.52 16.113 c0 -0.8 0.68 -1.48 1.52 -1.48 c0.8 0 1.48 0.68 1.48 1.48 s-0.68 1.48 -1.48 1.48 c-0.84 0 -1.52 -0.68 -1.52 -1.48 z M178.24 39.6 c0.12 0 0.2 0.08 0.2 0.2 s-0.08 0.2 -0.2 0.2 l-6.4 0 c-0.12 0 -0.2 -0.08 -0.2 -0.2 s0.08 -0.2 0.2 -0.2 l1.16 0 c0.52 0 0.84 -0.4 0.84 -0.84 l0 -15.56 c0 -0.44 -0.32 -0.84 -0.84 -0.84 l-1.16 0 c-0.12 0 -0.2 -0.08 -0.2 -0.2 s0.08 -0.2 0.2 -0.2 l4.4 0 l0 16.8 c0 0.44 0.32 0.84 0.84 0.84 l1.16 0 z M197.48000000000002 21.96 l0 0.4 l-12.36 17.24 l7.04 0 c3.28 0 4.92 -2.56 4.92 -5.32 l0 -0.8 c0 -0.12 0.08 -0.2 0.2 -0.2 s0.2 0.08 0.2 0.2 l0 6.52 l-15.32 0 l0 -0.4 l12.36 -17.24 l-6.68 0 c-3.28 0 -4.92 2.56 -4.92 5.32 l0 0.8 c0 0.12 -0.08 0.2 -0.2 0.2 s-0.2 -0.08 -0.2 -0.2 l0 -6.52 l14.96 0 z M211.40000000000003 40.2 c-4.48 0 -8.36 -3.16 -8.36 -9.28 s3.88 -9.24 8.36 -9.24 s8.36 3.12 8.36 9.24 s-3.88 9.28 -8.36 9.28 z M211.40000000000003 39.76 c3.08 -0.04 5.68 -3.08 5.68 -8.84 c0 -5.8 -2.6 -8.8 -5.68 -8.8 s-5.68 3 -5.68 8.8 c0 5.76 2.6 8.8 5.68 8.84 z M243.04000000000002 39.6 c0.12 0 0.2 0.08 0.2 0.2 s-0.08 0.2 -0.2 0.2 l-6.4 0 c-0.12 0 -0.2 -0.08 -0.2 -0.2 s0.08 -0.2 0.2 -0.2 l1.16 0 c0.52 0 0.84 -0.4 0.84 -0.84 l0 -10.64 c0 -4.52 -2.28 -5.68 -3.96 -5.68 c-3.8 0 -6.44 4 -6.44 8.64 l0 7.68 c0 0.44 0.32 0.84 0.84 0.84 l1.16 0 c0.12 0 0.2 0.08 0.2 0.2 s-0.08 0.2 -0.2 0.2 l-6.4 0 c-0.12 0 -0.2 -0.08 -0.2 -0.2 s0.08 -0.2 0.2 -0.2 l1.16 0 c0.52 0 0.84 -0.4 0.84 -0.84 l0 -15.56 c0 -0.44 -0.32 -0.84 -0.84 -0.84 l-1.16 0 c-0.12 0 -0.2 -0.08 -0.2 -0.2 s0.08 -0.2 0.2 -0.2 l4.4 0 l0 5.96 c0.92 -3.52 3.44 -6.16 7.16 -6.16 c3.44 0 5.64 2 5.64 5.44 l0 11.56 c0 0.44 0.32 0.84 0.84 0.84 l1.16 0 z"></path></g></svg>